<svg width="1440" height="765" viewBox="0 0 1440 765" fill="none" xmlns="http://www.w3.org/2000/svg">
<path d="M-3.5 619C472.5 253 455.5 540.5 580.5 587C686.644 626.485 1288.51 609.368 1448.09 476.869C1456.64 388.218 1471.25 292.631 1493.59 199.682C1521.35 31.3489 1582.68 -101.823 1518 109.811C1509 139.265 1500.88 169.333 1493.59 199.682C1482.72 265.593 1477 336.895 1486 395C1490.83 426.151 1476.44 453.33 1448.09 476.869C1437.09 590.813 1436.09 693.3 1441.5 764H484H-3.5V619Z" fill="#F22111" fill-opacity="0.8"/>
<path d="M-3.5 619C472.5 253 455.5 540.5 580.5 587C705.5 633.5 1518 601.5 1486 395C1454 188.5 1608 -184.689 1518 109.811C1446 345.411 1430.5 620.333 1441.5 764H484H-3.5V619Z" stroke="black"/>
</svg>
